<svg width="50" height="50" viewBox="0 0 50 50" fill="none" xmlns="http://www.w3.org/2000/svg">
    <g clip-path="url(#clip0_50_505)">
        <path d="M45.6613 13.3023H38.7847L34.8161 8.96362H19.6306V15.4717H13.1226V21.9798H6.6145V43.6733C6.61875 44.8227 7.07723 45.9238 7.88997 46.7365C8.70272 47.5493 9.80382 48.0078 10.9532 48.012H45.6613C46.8107 48.0078 47.9118 47.5493 48.7245 46.7365C49.5373 45.9238 49.9957 44.8227 50 43.6733V17.6402C49.9955 16.491 49.5369 15.3901 48.7242 14.5775C47.9115 13.7649 46.8105 13.3066 45.6613 13.3023ZM28.3072 41.5023C26.1621 41.5023 24.0652 40.8662 22.2815 39.6745C20.4979 38.4827 19.1078 36.7888 18.2869 34.8069C17.466 32.8251 17.2512 30.6443 17.6697 28.5404C18.0882 26.4365 19.1212 24.5039 20.638 22.9871C22.1548 21.4703 24.0874 20.4373 26.1913 20.0188C28.2952 19.6003 30.476 19.8151 32.4578 20.636C34.4397 21.4569 36.1336 22.8471 37.3253 24.6307C38.5171 26.4143 39.1532 28.5112 39.1532 30.6564C39.1521 33.5326 38.0091 36.2907 35.9753 38.3244C33.9415 40.3582 31.1834 41.5013 28.3072 41.5023Z"
              fill="#545EE3"/>
        <path d="M6.6153 19.8096H10.954V13.3015H17.4621V8.96363H10.954V2.45557H6.6153V8.96363H0.107239V13.3023H6.6153V19.8096Z"
              fill="#545EE3"/>
        <path d="M28.3072 23.7144C27.3954 23.7135 26.4923 23.8925 25.6497 24.2411C24.807 24.5896 24.0414 25.1009 23.3967 25.7457C22.7519 26.3905 22.2406 27.1561 21.892 27.9987C21.5434 28.8413 21.3644 29.7444 21.3653 30.6563C21.3653 32.0293 21.7724 33.3714 22.5352 34.513C23.298 35.6546 24.3822 36.5444 25.6507 37.0698C26.9191 37.5952 28.3149 37.7327 29.6615 37.4648C31.0081 37.197 32.2451 36.5358 33.2159 35.565C34.1868 34.5941 34.8479 33.3572 35.1158 32.0106C35.3836 30.664 35.2462 29.2682 34.7207 27.9997C34.1953 26.7313 33.3056 25.6471 32.164 24.8843C31.0224 24.1215 29.6802 23.7144 28.3072 23.7144Z"
              fill="#545EE3"/>
    </g>
    <defs>
        <clipPath id="clip0_50_505">
            <rect width="50" height="50" fill="white"/>
        </clipPath>
    </defs>
</svg>
